<svg width="67" height="67" viewBox="0 0 67 67" fill="none" xmlns="http://www.w3.org/2000/svg">
<path d="M59.7785 28.1395L60.8295 25.7787L58.2944 25.2858C53.9207 24.4925 49.7958 22.6786 46.2549 19.9915C42.5774 17.0913 38.1382 15.3188 33.4744 14.8885C31.0276 14.6152 28.5512 14.9582 26.2708 15.8864C23.9903 16.8146 21.9783 18.2985 20.4178 20.2029C18.4002 22.6621 17.0555 25.6029 16.5154 28.7377C17.8801 27.7217 19.3194 26.8099 20.8211 26.0101C24.1283 24.3713 27.8227 23.6744 31.4997 23.9955C35.045 24.2994 38.47 25.4294 41.5001 27.295C38.2977 26.082 34.8779 25.5492 31.4583 25.7304C29.8144 25.808 28.1871 26.095 26.6158 26.5844C25.0876 27.0974 23.617 27.7681 22.2277 28.5856C19.4728 30.3786 16.9971 32.5678 14.8804 35.0825C12.7174 37.5831 10.7888 40.2772 9.11909 43.1309L12.6752 45.1378C14.2995 42.6501 16.0987 40.2811 18.0592 38.0487C19.7743 40.7731 22.1574 43.0138 24.9821 44.558C27.5977 46.0318 30.4823 46.9662 33.4652 47.306C50.2574 49.1638 59.3269 28.9396 59.7785 28.1395Z" fill="#0FA958"/>
</svg>
