<svg width="26" height="26" viewBox="0 0 26 26" fill="none" xmlns="http://www.w3.org/2000/svg">
<path d="M22.75 4.875H3.25C2.81902 4.875 2.4057 5.0462 2.10095 5.35095C1.7962 5.6557 1.625 6.06902 1.625 6.5V19.5C1.625 19.931 1.7962 20.3443 2.10095 20.649C2.4057 20.9538 2.81902 21.125 3.25 21.125H22.75C23.181 21.125 23.5943 20.9538 23.899 20.649C24.2038 20.3443 24.375 19.931 24.375 19.5V6.5C24.375 6.06902 24.2038 5.6557 23.899 5.35095C23.5943 5.0462 23.181 4.875 22.75 4.875ZM20.9625 6.5L13 12.0087L5.0375 6.5H20.9625ZM3.25 19.5V7.23937L12.5369 13.6663C12.6729 13.7606 12.8345 13.8112 13 13.8112C13.1655 13.8112 13.3271 13.7606 13.4631 13.6663L22.75 7.23937V19.5H3.25Z" fill="#FF9A62"/>
</svg>
