<svg width="29" height="29" viewBox="0 0 29 29" fill="none" xmlns="http://www.w3.org/2000/svg">
<path d="M17.7174 19.7475L19.7474 17.7175C20.0208 17.4475 20.3667 17.2627 20.7432 17.1855C21.1196 17.1082 21.5104 17.142 21.868 17.2825L24.3421 18.2703C24.7035 18.4171 25.0134 18.6675 25.2327 18.99C25.4521 19.3126 25.571 19.6928 25.5746 20.0828V24.6141C25.5725 24.8794 25.5167 25.1416 25.4106 25.3848C25.3045 25.628 25.1503 25.8472 24.9573 26.0293C24.7642 26.2113 24.5363 26.3524 24.2873 26.444C24.0383 26.5357 23.7733 26.576 23.5083 26.5625C6.17176 25.4841 2.67363 10.8028 2.01207 5.1841C1.98136 4.90818 2.00942 4.62888 2.0944 4.36459C2.17938 4.10029 2.31936 3.85698 2.50513 3.65067C2.6909 3.44435 2.91824 3.27971 3.17221 3.16757C3.42618 3.05543 3.70101 2.99833 3.97863 3.00004H8.35582C8.74642 3.00119 9.12775 3.11918 9.45075 3.33882C9.77375 3.55846 10.0237 3.86971 10.1683 4.23254L11.1561 6.7066C11.3014 7.06282 11.3384 7.45393 11.2627 7.83109C11.1869 8.20824 11.0017 8.55471 10.7302 8.82722L8.70019 10.8572C8.70019 10.8572 9.86926 18.7688 17.7174 19.7475Z" fill="#FF9A62"/>
</svg>
