<svg width="35" height="36" viewBox="0 0 35 36" fill="none" xmlns="http://www.w3.org/2000/svg">
<path d="M17.5 6.72C16.3982 6.72 15.3211 7.05606 14.405 7.68568C13.4889 8.3153 12.7749 9.2102 12.3532 10.2572C11.9316 11.3042 11.8213 12.4564 12.0362 13.5679C12.2512 14.6794 12.7817 15.7004 13.5608 16.5017C14.3399 17.3031 15.3326 17.8488 16.4132 18.0699C17.4938 18.291 18.6139 18.1775 19.6319 17.7438C20.6498 17.3101 21.5198 16.5757 22.132 15.6334C22.7441 14.6911 23.0708 13.5833 23.0708 12.45C23.0708 10.9303 22.4839 9.47286 21.4392 8.39828C20.3944 7.3237 18.9775 6.72 17.5 6.72ZM17.5 16.18C16.7828 16.18 16.0816 15.9612 15.4853 15.5514C14.8889 15.1415 14.4241 14.559 14.1497 13.8774C13.8752 13.1958 13.8034 12.4459 13.9433 11.7223C14.0832 10.9988 14.4286 10.3341 14.9358 9.81249C15.4429 9.29084 16.0891 8.9356 16.7925 8.79167C17.496 8.64775 18.2251 8.72162 18.8878 9.00393C19.5504 9.28625 20.1168 9.76433 20.5152 10.3777C20.9137 10.9911 21.1264 11.7123 21.1264 12.45C21.1238 13.4375 20.7406 14.3837 20.0608 15.081C19.381 15.7784 18.4601 16.17 17.5 16.17V16.18Z" fill="black"/>
<path d="M17.5 2C14.4717 2.0026 11.5675 3.23769 9.42162 5.4355C7.27576 7.63331 6.06264 10.6152 6.04723 13.73C6.04723 18.4 8.59445 22.31 10.4611 25.16L10.8014 25.68C12.6586 28.4486 14.651 31.1187 16.7708 33.68L17.5097 34.57L18.2486 33.68C20.3682 31.1185 22.3606 28.4484 24.2181 25.68L24.5583 25.15C26.4153 22.3 28.9625 18.4 28.9625 13.73C28.9471 10.6135 27.7326 7.63007 25.5847 5.43197C23.4367 3.23388 20.53 1.99996 17.5 2ZM22.9347 24L22.5847 24.53C20.9125 27.11 18.6958 30 17.5 31.43C16.3528 30 14.0875 27.11 12.4153 24.53L12.075 24C10.3542 21.36 7.99167 17.75 7.99167 13.69C7.99167 12.4057 8.23761 11.1339 8.71545 9.94736C9.19329 8.76079 9.89367 7.68265 10.7766 6.7745C11.6595 5.86634 12.7077 5.14595 13.8613 4.65446C15.0149 4.16297 16.2514 3.91 17.5 3.91C18.7487 3.91 19.9851 4.16297 21.1387 4.65446C22.2923 5.14595 23.3405 5.86634 24.2234 6.7745C25.1063 7.68265 25.8067 8.76079 26.2846 9.94736C26.7624 11.1339 27.0083 12.4057 27.0083 13.69C27.0083 17.79 24.6556 21.4 22.9347 24Z" fill="black"/>
</svg>
