<svg width="30" height="30" viewBox="0 0 30 30" fill="none" xmlns="http://www.w3.org/2000/svg">
<g clip-path="url(#clip0_207_43)">
<path d="M22.0163 19.395C23.8318 16.9175 24.645 13.8459 24.2931 10.7947C23.9412 7.74339 22.4502 4.93751 20.1183 2.93837C17.7865 0.939228 14.7858 -0.105742 11.7166 0.0125203C8.64736 0.130783 5.73598 1.40356 3.56488 3.5762C1.39379 5.74885 0.1231 8.66115 0.00703378 11.7304C-0.109032 14.7997 0.938085 17.7997 2.93889 20.1301C4.9397 22.4605 7.74665 23.9495 10.7982 24.2992C13.8497 24.6489 16.9207 23.8336 19.3969 22.0163H19.395C19.4513 22.0913 19.5113 22.1625 19.5788 22.2319L26.7975 29.4506C27.1491 29.8025 27.626 30.0002 28.1234 30.0004C28.6208 30.0006 29.0979 29.8031 29.4497 29.4516C29.8015 29.1 29.9993 28.623 29.9994 28.1257C29.9996 27.6283 29.8022 27.1512 29.4506 26.7994L22.2319 19.5806C22.1648 19.5128 22.0928 19.4501 22.0163 19.3931V19.395ZM22.5 12.1875C22.5 13.5418 22.2333 14.8828 21.715 16.1339C21.1968 17.3851 20.4371 18.5219 19.4795 19.4795C18.5219 20.4371 17.3851 21.1968 16.1339 21.715C14.8828 22.2333 13.5418 22.5 12.1875 22.5C10.8332 22.5 9.49225 22.2333 8.24108 21.715C6.98991 21.1968 5.85307 20.4371 4.89547 19.4795C3.93786 18.5219 3.17825 17.3851 2.66 16.1339C2.14175 14.8828 1.87501 13.5418 1.87501 12.1875C1.87501 9.45246 2.9615 6.82943 4.89547 4.89546C6.82944 2.96149 9.45246 1.875 12.1875 1.875C14.9226 1.875 17.5456 2.96149 19.4795 4.89546C21.4135 6.82943 22.5 9.45246 22.5 12.1875Z" fill="black"/>
</g>
<defs>
<clipPath id="clip0_207_43">
<rect width="30" height="30" fill="white"/>
</clipPath>
</defs>
</svg>
