<svg width="30" height="25" viewBox="0 0 30 25" fill="none" xmlns="http://www.w3.org/2000/svg">
<path d="M1.0421 11.2575C0.990035 11.0487 0.986209 10.8308 1.03091 10.6204C1.07562 10.4099 1.16768 10.2124 1.3001 10.0429C1.43253 9.87332 1.60184 9.73615 1.79519 9.64179C1.98854 9.54744 2.20085 9.49837 2.41599 9.49831H27.1177C27.3329 9.49837 27.5452 9.54744 27.7385 9.64179C27.9319 9.73615 28.1012 9.87332 28.2336 10.0429C28.3661 10.2124 28.4581 10.4099 28.5028 10.6204C28.5475 10.8308 28.5437 11.0487 28.4916 11.2575L25.9266 21.5163C25.7734 22.1292 25.4198 22.6732 24.9219 23.062C24.424 23.4508 23.8105 23.6621 23.1788 23.6622H6.35496C5.72327 23.6621 5.10973 23.4508 4.61186 23.062C4.11399 22.6732 3.76036 22.1292 3.60717 21.5163L1.0421 11.2589V11.2575Z" stroke="black" stroke-width="2" stroke-linejoin="round"/>
<path d="M10.5177 15.1638V17.9966" stroke="black" stroke-width="2" stroke-linecap="round"/>
<path d="M19.0161 15.1638V17.9966" stroke="black" stroke-width="2" stroke-linecap="round"/>
<path d="M6.26855 9.49831L11.9341 1" stroke="black" stroke-width="2" stroke-linecap="round"/>
<path d="M23.2652 9.49831L17.5996 1" stroke="black" stroke-width="2" stroke-linecap="round"/>
</svg>
