<svg width="51" height="52" viewBox="0 0 51 52" fill="none" xmlns="http://www.w3.org/2000/svg">
<rect width="51" height="52" rx="3" fill="#EEEEEE"/>
<path fill-rule="evenodd" clip-rule="evenodd" d="M19.62 12.088C21.184 12.016 21.6827 12 25.6667 12C29.6507 12 30.1493 12.0173 31.712 12.088C33.2747 12.1587 34.3413 12.408 35.2747 12.7693C36.252 13.1387 37.1387 13.716 37.872 14.4627C38.6187 15.1947 39.1947 16.08 39.5627 17.0587C39.9253 17.992 40.1733 19.0587 40.2453 20.6187C40.3173 22.1853 40.3333 22.684 40.3333 26.6667C40.3333 30.6507 40.316 31.1493 40.2453 32.7133C40.1747 34.2733 39.9253 35.34 39.5627 36.2733C39.1947 37.2521 38.6177 38.1389 37.872 38.872C37.1387 39.6187 36.252 40.1947 35.2747 40.5627C34.3413 40.9253 33.2747 41.1733 31.7147 41.2453C30.1493 41.3173 29.6507 41.3333 25.6667 41.3333C21.6827 41.3333 21.184 41.316 19.62 41.2453C18.06 41.1747 16.9933 40.9253 16.06 40.5627C15.0812 40.1946 14.1944 39.6177 13.4613 38.872C12.7152 38.1396 12.1378 37.2532 11.7693 36.2747C11.408 35.3413 11.16 34.2747 11.088 32.7147C11.016 31.148 11 30.6493 11 26.6667C11 22.6827 11.0173 22.184 11.088 20.6213C11.1587 19.0587 11.408 17.992 11.7693 17.0587C12.1383 16.0801 12.7162 15.1938 13.4627 14.4613C14.1947 13.7153 15.0806 13.1379 16.0587 12.7693C16.992 12.408 18.0587 12.16 19.6187 12.088H19.62ZM31.5933 14.728C30.0467 14.6573 29.5827 14.6427 25.6667 14.6427C21.7507 14.6427 21.2867 14.6573 19.74 14.728C18.3093 14.7933 17.5333 15.032 17.016 15.2333C16.332 15.5 15.8427 15.816 15.3293 16.3293C14.8427 16.8027 14.4682 17.379 14.2333 18.016C14.032 18.5333 13.7933 19.3093 13.728 20.74C13.6573 22.2867 13.6427 22.7507 13.6427 26.6667C13.6427 30.5827 13.6573 31.0467 13.728 32.5933C13.7933 34.024 14.032 34.8 14.2333 35.3173C14.468 35.9533 14.8427 36.5307 15.3293 37.004C15.8027 37.4907 16.38 37.8653 17.016 38.1C17.5333 38.3013 18.3093 38.54 19.74 38.6053C21.2867 38.676 21.7493 38.6907 25.6667 38.6907C29.584 38.6907 30.0467 38.676 31.5933 38.6053C33.024 38.54 33.8 38.3013 34.3173 38.1C35.0013 37.8333 35.4907 37.5173 36.004 37.004C36.4907 36.5307 36.8653 35.9533 37.1 35.3173C37.3013 34.8 37.54 34.024 37.6053 32.5933C37.676 31.0467 37.6907 30.5827 37.6907 26.6667C37.6907 22.7507 37.676 22.2867 37.6053 20.74C37.54 19.3093 37.3013 18.5333 37.1 18.016C36.8333 17.332 36.5173 16.8427 36.004 16.3293C35.5306 15.8428 34.9543 15.4683 34.3173 15.2333C33.8 15.032 33.024 14.7933 31.5933 14.728ZM23.7933 31.188C24.8395 31.6235 26.0045 31.6823 27.0892 31.3543C28.174 31.0263 29.1112 30.3319 29.7408 29.3897C30.3704 28.4474 30.6534 27.3158 30.5414 26.1881C30.4294 25.0605 29.9293 24.0066 29.1267 23.2067C28.615 22.6953 27.9963 22.3037 27.3151 22.0602C26.6339 21.8166 25.9072 21.7271 25.1873 21.7982C24.4674 21.8692 23.7722 22.0989 23.1517 22.4708C22.5313 22.8428 22.001 23.3477 21.5991 23.9491C21.1971 24.5506 20.9336 25.2337 20.8274 25.9493C20.7211 26.6648 20.7749 27.3951 20.9847 28.0874C21.1946 28.7797 21.5553 29.4168 22.041 29.953C22.5266 30.4891 23.1251 30.9109 23.7933 31.188ZM20.336 21.336C21.036 20.636 21.8671 20.0807 22.7817 19.7018C23.6964 19.323 24.6767 19.128 25.6667 19.128C26.6567 19.128 27.637 19.323 28.5516 19.7018C29.4662 20.0807 30.2973 20.636 30.9973 21.336C31.6974 22.036 32.2527 22.8671 32.6315 23.7817C33.0104 24.6964 33.2054 25.6767 33.2054 26.6667C33.2054 27.6567 33.0104 28.637 32.6315 29.5516C32.2527 30.4662 31.6974 31.2973 30.9973 31.9973C29.5836 33.4111 27.6661 34.2054 25.6667 34.2054C23.6673 34.2054 21.7498 33.4111 20.336 31.9973C18.9222 30.5836 18.128 28.6661 18.128 26.6667C18.128 24.6673 18.9222 22.7498 20.336 21.336ZM34.8773 20.2507C35.0508 20.087 35.1897 19.8902 35.2857 19.672C35.3818 19.4537 35.4331 19.2184 35.4366 18.9799C35.44 18.7415 35.3956 18.5047 35.306 18.2837C35.2163 18.0628 35.0832 17.862 34.9146 17.6934C34.746 17.5248 34.5452 17.3917 34.3243 17.302C34.1033 17.2124 33.8665 17.168 33.6281 17.1714C33.3896 17.1749 33.1543 17.2262 32.936 17.3223C32.7178 17.4183 32.521 17.5572 32.3573 17.7307C32.0391 18.068 31.8648 18.5162 31.8716 18.9799C31.8784 19.4437 32.0656 19.8865 32.3935 20.2145C32.7215 20.5424 33.1643 20.7296 33.6281 20.7364C34.0918 20.7432 34.54 20.5689 34.8773 20.2507Z" fill="#FF9A62"/>
</svg>
