<svg width="168" height="79" viewBox="0 0 168 79" fill="none" xmlns="http://www.w3.org/2000/svg">
<path d="M14.16 30.001V13.393H12.336V20.833H3.888V13.393H2.04V30.001H3.888V22.489H12.336V30.001H14.16ZM17.3953 23.977C17.3953 22.873 17.4833 21.929 17.6593 21.145C17.8513 20.361 18.1553 19.721 18.5713 19.225C18.9873 18.713 19.5233 18.345 20.1793 18.121C20.8353 17.881 21.6273 17.761 22.5553 17.761C23.4833 17.761 24.2673 17.881 24.9073 18.121C25.5633 18.345 26.0913 18.713 26.4913 19.225C26.9073 19.721 27.2033 20.361 27.3793 21.145C27.5713 21.929 27.6673 22.873 27.6673 23.977C27.6673 25.081 27.5793 26.025 27.4033 26.809C27.2433 27.593 26.9633 28.241 26.5633 28.753C26.1633 29.265 25.6353 29.641 24.9793 29.881C24.3233 30.121 23.5073 30.241 22.5313 30.241C21.5553 30.241 20.7393 30.121 20.0833 29.881C19.4273 29.641 18.8993 29.265 18.4993 28.753C18.0993 28.241 17.8113 27.593 17.6353 26.809C17.4753 26.025 17.3953 25.081 17.3953 23.977ZM19.2433 23.929C19.2433 24.809 19.2833 25.553 19.3633 26.161C19.4593 26.753 19.6273 27.241 19.8673 27.625C20.1233 27.993 20.4673 28.265 20.8993 28.441C21.3313 28.601 21.8833 28.681 22.5553 28.681C23.2273 28.681 23.7713 28.601 24.1873 28.441C24.6193 28.281 24.9553 28.017 25.1953 27.649C25.4353 27.265 25.5953 26.777 25.6753 26.185C25.7713 25.577 25.8193 24.833 25.8193 23.953C25.8193 23.073 25.7633 22.337 25.6513 21.745C25.5553 21.153 25.3793 20.681 25.1233 20.329C24.8673 19.961 24.5313 19.705 24.1153 19.561C23.6993 19.401 23.1793 19.321 22.5553 19.321C21.9313 19.321 21.4033 19.401 20.9713 19.561C20.5553 19.705 20.2193 19.961 19.9633 20.329C19.7073 20.681 19.5233 21.153 19.4113 21.745C19.2993 22.321 19.2433 23.049 19.2433 23.929ZM32.403 30.001H30.603V18.001H32.379V19.633C33.755 18.689 35.219 18.057 36.771 17.737V19.561C36.435 19.625 36.083 19.713 35.715 19.825C35.363 19.937 35.011 20.057 34.659 20.185C34.323 20.297 34.011 20.417 33.723 20.545C33.435 20.673 33.195 20.785 33.003 20.881L32.403 21.193V30.001ZM45.1159 18.001V19.561H41.2999V25.297C41.2999 26.689 41.4039 27.593 41.6119 28.009C41.8039 28.441 42.2759 28.657 43.0279 28.657L45.1639 28.513L45.2839 30.001C44.7399 30.081 44.2599 30.145 43.8439 30.193C43.4439 30.241 43.1079 30.265 42.8359 30.265C42.2119 30.265 41.6839 30.193 41.2519 30.049C40.8359 29.921 40.4999 29.689 40.2439 29.353C39.9879 29.017 39.8039 28.569 39.6919 28.009C39.5799 27.449 39.5239 26.737 39.5239 25.873V19.561H37.8199V18.001H39.5239V14.329H41.2999V18.001H45.1159ZM55.7859 21.625V27.769C55.8339 28.361 56.2979 28.713 57.1779 28.825L57.1059 30.241C55.8419 30.241 54.8899 29.921 54.2499 29.281C52.8259 29.921 51.3859 30.241 49.9299 30.241C48.8259 30.241 47.9859 29.929 47.4099 29.305C46.8339 28.681 46.5459 27.785 46.5459 26.617C46.5459 25.449 46.8419 24.593 47.4339 24.049C48.0259 23.489 48.9539 23.145 50.2179 23.017L53.9859 22.657V21.625C53.9859 20.809 53.8099 20.225 53.4579 19.873C53.1059 19.521 52.6259 19.345 52.0179 19.345C51.3779 19.345 50.7219 19.369 50.0499 19.417C49.3939 19.449 48.7219 19.505 48.0339 19.585L47.2899 19.657L47.2179 18.289C48.9299 17.937 50.4899 17.761 51.8979 17.761C53.2579 17.761 54.2419 18.073 54.8499 18.697C55.4739 19.305 55.7859 20.281 55.7859 21.625ZM48.3939 26.521C48.3939 27.993 49.0019 28.729 50.2179 28.729C51.2899 28.729 52.3619 28.545 53.4339 28.177L53.9859 27.985V24.025L50.4339 24.361C49.7139 24.425 49.1939 24.633 48.8739 24.985C48.5539 25.337 48.3939 25.849 48.3939 26.521ZM9.27 68.331C7.77 68.331 6.52 68.131 5.52 67.731C4.54 67.331 3.75 66.701 3.15 65.841C2.57 64.981 2.16 63.881 1.92 62.541C1.68 61.181 1.56 59.551 1.56 57.651C1.56 55.751 1.68 54.141 1.92 52.821C2.16 51.481 2.57 50.391 3.15 49.551C3.75 48.711 4.54 48.101 5.52 47.721C6.52 47.321 7.77 47.121 9.27 47.121C10.17 47.121 11.1 47.181 12.06 47.301C13.04 47.421 14.07 47.611 15.15 47.871L15.03 50.571C13.29 50.251 11.49 50.091 9.63 50.091C8.73 50.091 7.98 50.211 7.38 50.451C6.8 50.691 6.33 51.111 5.97 51.711C5.61 52.291 5.36 53.071 5.22 54.051C5.08 55.011 5.01 56.231 5.01 57.711C5.01 59.191 5.08 60.421 5.22 61.401C5.36 62.381 5.6 63.171 5.94 63.771C6.28 64.351 6.74 64.761 7.32 65.001C7.92 65.241 8.67 65.361 9.57 65.361C11.39 65.361 13.21 65.211 15.03 64.911L15.12 67.671C13.1 68.111 11.15 68.331 9.27 68.331ZM24.2684 52.671C26.6684 52.671 28.3784 53.321 29.3984 54.621C30.4384 55.921 30.9584 57.871 30.9584 60.471C30.9584 61.771 30.8384 62.911 30.5984 63.891C30.3584 64.871 29.9784 65.691 29.4584 66.351C28.9384 67.011 28.2484 67.511 27.3884 67.851C26.5484 68.171 25.5084 68.331 24.2684 68.331C23.0484 68.331 22.0084 68.171 21.1484 67.851C20.2884 67.511 19.5984 67.011 19.0784 66.351C18.5584 65.691 18.1784 64.871 17.9384 63.891C17.6984 62.911 17.5784 61.771 17.5784 60.471C17.5784 59.291 17.6884 58.221 17.9084 57.261C18.1284 56.301 18.4884 55.481 18.9884 54.801C19.5084 54.121 20.1984 53.601 21.0584 53.241C21.9184 52.861 22.9884 52.671 24.2684 52.671ZM21.5684 64.371C22.0084 65.171 22.9084 65.571 24.2684 65.571C24.9284 65.571 25.4784 65.481 25.9184 65.301C26.3584 65.101 26.7084 64.791 26.9684 64.371C27.2284 63.951 27.4084 63.421 27.5084 62.781C27.6084 62.121 27.6584 61.341 27.6584 60.441C27.6584 58.621 27.4084 57.331 26.9084 56.571C26.4284 55.811 25.5484 55.431 24.2684 55.431C22.9884 55.431 22.0984 55.811 21.5984 56.571C21.1184 57.331 20.8784 58.621 20.8784 60.441C20.8784 62.241 21.1084 63.551 21.5684 64.371ZM37.4766 56.361V68.001H34.2066V53.001H37.4466V53.931C38.8666 53.091 40.1666 52.671 41.3466 52.671C43.0866 52.671 44.3566 53.161 45.1566 54.141C46.9766 53.161 48.7866 52.671 50.5866 52.671C51.4866 52.671 52.2466 52.801 52.8666 53.061C53.5066 53.321 54.0166 53.751 54.3966 54.351C54.7966 54.931 55.0766 55.681 55.2366 56.601C55.4166 57.521 55.5066 58.641 55.5066 59.961V68.001H52.2666V60.051C52.2666 58.431 52.0966 57.281 51.7566 56.601C51.4366 55.921 50.7566 55.581 49.7166 55.581C48.8566 55.581 47.8866 55.781 46.8066 56.181L46.2966 56.391C46.4566 56.811 46.5366 58.091 46.5366 60.231V68.001H43.2966V60.291C43.2966 59.391 43.2566 58.641 43.1766 58.041C43.1166 57.441 42.9966 56.961 42.8166 56.601C42.6366 56.241 42.3766 55.981 42.0366 55.821C41.6966 55.661 41.2566 55.581 40.7166 55.581C39.7566 55.581 38.8266 55.781 37.9266 56.181L37.4766 56.361ZM68.4333 64.641V53.001H71.6733V68.001H68.4333V67.071C66.9733 67.911 65.6233 68.331 64.3833 68.331C63.3633 68.331 62.5133 68.201 61.8333 67.941C61.1733 67.681 60.6433 67.261 60.2433 66.681C59.8633 66.081 59.5933 65.301 59.4333 64.341C59.2733 63.381 59.1933 62.211 59.1933 60.831V53.001H62.4633V60.861C62.4633 61.761 62.4933 62.511 62.5533 63.111C62.6133 63.691 62.7333 64.151 62.9133 64.491C63.0933 64.831 63.3533 65.071 63.6933 65.211C64.0333 65.351 64.4733 65.421 65.0133 65.421C66.0733 65.421 67.0633 65.221 67.9833 64.821L68.4333 64.641ZM78.9023 56.361V68.001H75.6323V53.001H78.8723V53.931C80.3523 53.091 81.7323 52.671 83.0123 52.671C84.0123 52.671 84.8423 52.811 85.5023 53.091C86.1623 53.351 86.6923 53.781 87.0923 54.381C87.4923 54.961 87.7723 55.711 87.9323 56.631C88.1123 57.551 88.2023 58.661 88.2023 59.961V68.001H84.9623V60.051C84.9623 59.231 84.9223 58.541 84.8423 57.981C84.7623 57.421 84.6223 56.961 84.4223 56.601C84.2423 56.241 83.9723 55.981 83.6123 55.821C83.2723 55.661 82.8323 55.581 82.2923 55.581C81.2923 55.581 80.3123 55.781 79.3523 56.181L78.9023 56.361ZM95.2793 68.001V53.001H92.0093V68.001H95.2793ZM95.2793 50.451V47.001H92.0093V50.451H95.2793ZM107.316 53.001V55.791H103.176V62.391C103.176 62.991 103.186 63.491 103.206 63.891C103.246 64.291 103.326 64.601 103.446 64.821C103.566 65.041 103.736 65.201 103.956 65.301C104.176 65.381 104.466 65.421 104.826 65.421L107.286 65.331L107.436 67.941C106.136 68.201 105.116 68.331 104.376 68.331C103.536 68.331 102.826 68.241 102.246 68.061C101.686 67.881 101.226 67.581 100.866 67.161C100.526 66.741 100.286 66.171 100.146 65.451C100.006 64.731 99.9356 63.831 99.9356 62.751V55.791H98.0156V53.001H99.9356V48.651H103.176V53.001H107.316ZM116.658 51.651C118.618 51.651 120.068 52.081 121.008 52.941C121.948 53.801 122.418 55.171 122.418 57.051V68.001H120.498L119.988 65.721H119.868C119.408 66.301 118.928 66.791 118.428 67.191C117.948 67.571 117.388 67.851 116.748 68.031C116.128 68.211 115.368 68.301 114.468 68.301C113.508 68.301 112.638 68.131 111.858 67.791C111.098 67.451 110.498 66.931 110.058 66.231C109.618 65.511 109.398 64.611 109.398 63.531C109.398 61.931 110.028 60.701 111.288 59.841C112.548 58.961 114.488 58.481 117.108 58.401L119.838 58.311V57.351C119.838 56.011 119.548 55.081 118.968 54.561C118.388 54.041 117.568 53.781 116.508 53.781C115.668 53.781 114.868 53.911 114.108 54.171C113.348 54.411 112.638 54.691 111.978 55.011L111.168 53.031C111.868 52.651 112.698 52.331 113.658 52.071C114.618 51.791 115.618 51.651 116.658 51.651ZM117.438 60.231C115.438 60.311 114.048 60.631 113.268 61.191C112.508 61.751 112.128 62.541 112.128 63.561C112.128 64.461 112.398 65.121 112.938 65.541C113.498 65.961 114.208 66.171 115.068 66.171C116.428 66.171 117.558 65.801 118.458 65.061C119.358 64.301 119.808 63.141 119.808 61.581V60.141L117.438 60.231ZM120.888 45.321C120.708 45.601 120.448 45.941 120.108 46.341C119.768 46.741 119.388 47.161 118.968 47.601C118.568 48.021 118.158 48.431 117.738 48.831C117.338 49.211 116.958 49.541 116.598 49.821H114.858V49.461C115.158 49.081 115.478 48.631 115.818 48.111C116.178 47.591 116.528 47.061 116.868 46.521C117.208 45.961 117.488 45.461 117.708 45.021H120.888V45.321ZM130.084 68.001H126.814V53.001H130.054V54.801C131.734 53.721 133.434 53.011 135.154 52.671V55.941C133.494 56.261 132.024 56.701 130.744 57.261L130.084 57.531V68.001ZM140.924 68.001V53.001H137.654V68.001H140.924ZM140.924 50.451V47.001H137.654V50.451H140.924ZM155.99 57.621V64.461C156.01 64.901 156.12 65.231 156.32 65.451C156.54 65.651 156.87 65.781 157.31 65.841L157.22 68.331C155.48 68.331 154.15 67.961 153.23 67.221C151.67 67.961 150.06 68.331 148.4 68.331C145.42 68.331 143.93 66.741 143.93 63.561C143.93 62.041 144.33 60.941 145.13 60.261C145.93 59.581 147.18 59.171 148.88 59.031L152.75 58.701V57.621C152.75 56.821 152.57 56.261 152.21 55.941C151.87 55.621 151.36 55.461 150.68 55.461C150.04 55.461 149.32 55.481 148.52 55.521C147.72 55.561 146.84 55.621 145.88 55.701L144.92 55.761L144.8 53.451C147.04 52.931 149.05 52.671 150.83 52.671C152.67 52.671 153.99 53.061 154.79 53.841C155.59 54.621 155.99 55.881 155.99 57.621ZM152.75 61.011L149.27 61.341C147.89 61.461 147.2 62.211 147.2 63.591C147.2 64.971 147.81 65.661 149.03 65.661C150.07 65.661 151.13 65.501 152.21 65.181L152.75 65.001V61.011Z" fill="black"/>
<path d="M120.778 21.1405L121.829 18.7797L119.294 18.2868C114.921 17.4936 110.796 15.6797 107.255 12.9925C103.577 10.0923 99.1382 8.31982 94.4744 7.88954C92.0276 7.6162 89.5512 7.95924 87.2708 8.88743C84.9903 9.81562 82.9783 11.2995 81.4178 13.2039C79.4002 15.6631 78.0555 18.6039 77.5154 21.7387C78.8801 20.7227 80.3194 19.8109 81.8211 19.0111C85.1283 17.3723 88.8227 16.6754 92.4997 16.9965C96.045 17.3004 99.47 18.4304 102.5 20.296C99.2977 19.083 95.8779 18.5502 92.4583 18.7314C90.8144 18.8091 89.1871 19.096 87.6158 19.5854C86.0876 20.0984 84.617 20.7691 83.2277 21.5866C80.4728 23.3797 77.9971 25.5688 75.8804 28.0835C73.7174 30.5841 71.7888 33.2782 70.1191 36.1319L73.6752 38.1388C75.2995 35.6511 77.0987 33.2821 79.0592 31.0497C80.7743 33.7741 83.1574 36.0148 85.9821 37.559C88.5977 39.0328 91.4823 39.9672 94.4652 40.307C111.257 42.1648 120.327 21.9406 120.778 21.1405Z" fill="#0FA958"/>
</svg>
