<svg width="168" height="86" viewBox="0 0 168 86" fill="none" xmlns="http://www.w3.org/2000/svg">
<path d="M14.16 37V20.392H12.336V27.832H3.888V20.392H2.04V37H3.888V29.488H12.336V37H14.16ZM17.3953 30.976C17.3953 29.872 17.4833 28.928 17.6593 28.144C17.8513 27.36 18.1553 26.72 18.5713 26.224C18.9873 25.712 19.5233 25.344 20.1793 25.12C20.8353 24.88 21.6273 24.76 22.5553 24.76C23.4833 24.76 24.2673 24.88 24.9073 25.12C25.5633 25.344 26.0913 25.712 26.4913 26.224C26.9073 26.72 27.2033 27.36 27.3793 28.144C27.5713 28.928 27.6673 29.872 27.6673 30.976C27.6673 32.08 27.5793 33.024 27.4033 33.808C27.2433 34.592 26.9633 35.24 26.5633 35.752C26.1633 36.264 25.6353 36.64 24.9793 36.88C24.3233 37.12 23.5073 37.24 22.5313 37.24C21.5553 37.24 20.7393 37.12 20.0833 36.88C19.4273 36.64 18.8993 36.264 18.4993 35.752C18.0993 35.24 17.8113 34.592 17.6353 33.808C17.4753 33.024 17.3953 32.08 17.3953 30.976ZM19.2433 30.928C19.2433 31.808 19.2833 32.552 19.3633 33.16C19.4593 33.752 19.6273 34.24 19.8673 34.624C20.1233 34.992 20.4673 35.264 20.8993 35.44C21.3313 35.6 21.8833 35.68 22.5553 35.68C23.2273 35.68 23.7713 35.6 24.1873 35.44C24.6193 35.28 24.9553 35.016 25.1953 34.648C25.4353 34.264 25.5953 33.776 25.6753 33.184C25.7713 32.576 25.8193 31.832 25.8193 30.952C25.8193 30.072 25.7633 29.336 25.6513 28.744C25.5553 28.152 25.3793 27.68 25.1233 27.328C24.8673 26.96 24.5313 26.704 24.1153 26.56C23.6993 26.4 23.1793 26.32 22.5553 26.32C21.9313 26.32 21.4033 26.4 20.9713 26.56C20.5553 26.704 20.2193 26.96 19.9633 27.328C19.7073 27.68 19.5233 28.152 19.4113 28.744C19.2993 29.32 19.2433 30.048 19.2433 30.928ZM32.403 37H30.603V25H32.379V26.632C33.755 25.688 35.219 25.056 36.771 24.736V26.56C36.435 26.624 36.083 26.712 35.715 26.824C35.363 26.936 35.011 27.056 34.659 27.184C34.323 27.296 34.011 27.416 33.723 27.544C33.435 27.672 33.195 27.784 33.003 27.88L32.403 28.192V37ZM45.1159 25V26.56H41.2999V32.296C41.2999 33.688 41.4039 34.592 41.6119 35.008C41.8039 35.44 42.2759 35.656 43.0279 35.656L45.1639 35.512L45.2839 37C44.7399 37.08 44.2599 37.144 43.8439 37.192C43.4439 37.24 43.1079 37.264 42.8359 37.264C42.2119 37.264 41.6839 37.192 41.2519 37.048C40.8359 36.92 40.4999 36.688 40.2439 36.352C39.9879 36.016 39.8039 35.568 39.6919 35.008C39.5799 34.448 39.5239 33.736 39.5239 32.872V26.56H37.8199V25H39.5239V21.328H41.2999V25H45.1159ZM55.7859 28.624V34.768C55.8339 35.36 56.2979 35.712 57.1779 35.824L57.1059 37.24C55.8419 37.24 54.8899 36.92 54.2499 36.28C52.8259 36.92 51.3859 37.24 49.9299 37.24C48.8259 37.24 47.9859 36.928 47.4099 36.304C46.8339 35.68 46.5459 34.784 46.5459 33.616C46.5459 32.448 46.8419 31.592 47.4339 31.048C48.0259 30.488 48.9539 30.144 50.2179 30.016L53.9859 29.656V28.624C53.9859 27.808 53.8099 27.224 53.4579 26.872C53.1059 26.52 52.6259 26.344 52.0179 26.344C51.3779 26.344 50.7219 26.368 50.0499 26.416C49.3939 26.448 48.7219 26.504 48.0339 26.584L47.2899 26.656L47.2179 25.288C48.9299 24.936 50.4899 24.76 51.8979 24.76C53.2579 24.76 54.2419 25.072 54.8499 25.696C55.4739 26.304 55.7859 27.28 55.7859 28.624ZM48.3939 33.52C48.3939 34.992 49.0019 35.728 50.2179 35.728C51.2899 35.728 52.3619 35.544 53.4339 35.176L53.9859 34.984V31.024L50.4339 31.36C49.7139 31.424 49.1939 31.632 48.8739 31.984C48.5539 32.336 48.3939 32.848 48.3939 33.52ZM9.27 75.33C7.77 75.33 6.52 75.13 5.52 74.73C4.54 74.33 3.75 73.7 3.15 72.84C2.57 71.98 2.16 70.88 1.92 69.54C1.68 68.18 1.56 66.55 1.56 64.65C1.56 62.75 1.68 61.14 1.92 59.82C2.16 58.48 2.57 57.39 3.15 56.55C3.75 55.71 4.54 55.1 5.52 54.72C6.52 54.32 7.77 54.12 9.27 54.12C10.17 54.12 11.1 54.18 12.06 54.3C13.04 54.42 14.07 54.61 15.15 54.87L15.03 57.57C13.29 57.25 11.49 57.09 9.63 57.09C8.73 57.09 7.98 57.21 7.38 57.45C6.8 57.69 6.33 58.11 5.97 58.71C5.61 59.29 5.36 60.07 5.22 61.05C5.08 62.01 5.01 63.23 5.01 64.71C5.01 66.19 5.08 67.42 5.22 68.4C5.36 69.38 5.6 70.17 5.94 70.77C6.28 71.35 6.74 71.76 7.32 72C7.92 72.24 8.67 72.36 9.57 72.36C11.39 72.36 13.21 72.21 15.03 71.91L15.12 74.67C13.1 75.11 11.15 75.33 9.27 75.33ZM24.2684 59.67C26.6684 59.67 28.3784 60.32 29.3984 61.62C30.4384 62.92 30.9584 64.87 30.9584 67.47C30.9584 68.77 30.8384 69.91 30.5984 70.89C30.3584 71.87 29.9784 72.69 29.4584 73.35C28.9384 74.01 28.2484 74.51 27.3884 74.85C26.5484 75.17 25.5084 75.33 24.2684 75.33C23.0484 75.33 22.0084 75.17 21.1484 74.85C20.2884 74.51 19.5984 74.01 19.0784 73.35C18.5584 72.69 18.1784 71.87 17.9384 70.89C17.6984 69.91 17.5784 68.77 17.5784 67.47C17.5784 66.29 17.6884 65.22 17.9084 64.26C18.1284 63.3 18.4884 62.48 18.9884 61.8C19.5084 61.12 20.1984 60.6 21.0584 60.24C21.9184 59.86 22.9884 59.67 24.2684 59.67ZM21.5684 71.37C22.0084 72.17 22.9084 72.57 24.2684 72.57C24.9284 72.57 25.4784 72.48 25.9184 72.3C26.3584 72.1 26.7084 71.79 26.9684 71.37C27.2284 70.95 27.4084 70.42 27.5084 69.78C27.6084 69.12 27.6584 68.34 27.6584 67.44C27.6584 65.62 27.4084 64.33 26.9084 63.57C26.4284 62.81 25.5484 62.43 24.2684 62.43C22.9884 62.43 22.0984 62.81 21.5984 63.57C21.1184 64.33 20.8784 65.62 20.8784 67.44C20.8784 69.24 21.1084 70.55 21.5684 71.37ZM37.4766 63.36V75H34.2066V60H37.4466V60.93C38.8666 60.09 40.1666 59.67 41.3466 59.67C43.0866 59.67 44.3566 60.16 45.1566 61.14C46.9766 60.16 48.7866 59.67 50.5866 59.67C51.4866 59.67 52.2466 59.8 52.8666 60.06C53.5066 60.32 54.0166 60.75 54.3966 61.35C54.7966 61.93 55.0766 62.68 55.2366 63.6C55.4166 64.52 55.5066 65.64 55.5066 66.96V75H52.2666V67.05C52.2666 65.43 52.0966 64.28 51.7566 63.6C51.4366 62.92 50.7566 62.58 49.7166 62.58C48.8566 62.58 47.8866 62.78 46.8066 63.18L46.2966 63.39C46.4566 63.81 46.5366 65.09 46.5366 67.23V75H43.2966V67.29C43.2966 66.39 43.2566 65.64 43.1766 65.04C43.1166 64.44 42.9966 63.96 42.8166 63.6C42.6366 63.24 42.3766 62.98 42.0366 62.82C41.6966 62.66 41.2566 62.58 40.7166 62.58C39.7566 62.58 38.8266 62.78 37.9266 63.18L37.4766 63.36ZM68.4333 71.64V60H71.6733V75H68.4333V74.07C66.9733 74.91 65.6233 75.33 64.3833 75.33C63.3633 75.33 62.5133 75.2 61.8333 74.94C61.1733 74.68 60.6433 74.26 60.2433 73.68C59.8633 73.08 59.5933 72.3 59.4333 71.34C59.2733 70.38 59.1933 69.21 59.1933 67.83V60H62.4633V67.86C62.4633 68.76 62.4933 69.51 62.5533 70.11C62.6133 70.69 62.7333 71.15 62.9133 71.49C63.0933 71.83 63.3533 72.07 63.6933 72.21C64.0333 72.35 64.4733 72.42 65.0133 72.42C66.0733 72.42 67.0633 72.22 67.9833 71.82L68.4333 71.64ZM78.9023 63.36V75H75.6323V60H78.8723V60.93C80.3523 60.09 81.7323 59.67 83.0123 59.67C84.0123 59.67 84.8423 59.81 85.5023 60.09C86.1623 60.35 86.6923 60.78 87.0923 61.38C87.4923 61.96 87.7723 62.71 87.9323 63.63C88.1123 64.55 88.2023 65.66 88.2023 66.96V75H84.9623V67.05C84.9623 66.23 84.9223 65.54 84.8423 64.98C84.7623 64.42 84.6223 63.96 84.4223 63.6C84.2423 63.24 83.9723 62.98 83.6123 62.82C83.2723 62.66 82.8323 62.58 82.2923 62.58C81.2923 62.58 80.3123 62.78 79.3523 63.18L78.9023 63.36ZM95.2793 75V60H92.0093V75H95.2793ZM95.2793 57.45V54H92.0093V57.45H95.2793ZM107.316 60V62.79H103.176V69.39C103.176 69.99 103.186 70.49 103.206 70.89C103.246 71.29 103.326 71.6 103.446 71.82C103.566 72.04 103.736 72.2 103.956 72.3C104.176 72.38 104.466 72.42 104.826 72.42L107.286 72.33L107.436 74.94C106.136 75.2 105.116 75.33 104.376 75.33C103.536 75.33 102.826 75.24 102.246 75.06C101.686 74.88 101.226 74.58 100.866 74.16C100.526 73.74 100.286 73.17 100.146 72.45C100.006 71.73 99.9356 70.83 99.9356 69.75V62.79H98.0156V60H99.9356V55.65H103.176V60H107.316ZM116.658 58.65C118.618 58.65 120.068 59.08 121.008 59.94C121.948 60.8 122.418 62.17 122.418 64.05V75H120.498L119.988 72.72H119.868C119.408 73.3 118.928 73.79 118.428 74.19C117.948 74.57 117.388 74.85 116.748 75.03C116.128 75.21 115.368 75.3 114.468 75.3C113.508 75.3 112.638 75.13 111.858 74.79C111.098 74.45 110.498 73.93 110.058 73.23C109.618 72.51 109.398 71.61 109.398 70.53C109.398 68.93 110.028 67.7 111.288 66.84C112.548 65.96 114.488 65.48 117.108 65.4L119.838 65.31V64.35C119.838 63.01 119.548 62.08 118.968 61.56C118.388 61.04 117.568 60.78 116.508 60.78C115.668 60.78 114.868 60.91 114.108 61.17C113.348 61.41 112.638 61.69 111.978 62.01L111.168 60.03C111.868 59.65 112.698 59.33 113.658 59.07C114.618 58.79 115.618 58.65 116.658 58.65ZM117.438 67.23C115.438 67.31 114.048 67.63 113.268 68.19C112.508 68.75 112.128 69.54 112.128 70.56C112.128 71.46 112.398 72.12 112.938 72.54C113.498 72.96 114.208 73.17 115.068 73.17C116.428 73.17 117.558 72.8 118.458 72.06C119.358 71.3 119.808 70.14 119.808 68.58V67.14L117.438 67.23ZM120.888 52.32C120.708 52.6 120.448 52.94 120.108 53.34C119.768 53.74 119.388 54.16 118.968 54.6C118.568 55.02 118.158 55.43 117.738 55.83C117.338 56.21 116.958 56.54 116.598 56.82H114.858V56.46C115.158 56.08 115.478 55.63 115.818 55.11C116.178 54.59 116.528 54.06 116.868 53.52C117.208 52.96 117.488 52.46 117.708 52.02H120.888V52.32ZM130.084 75H126.814V60H130.054V61.8C131.734 60.72 133.434 60.01 135.154 59.67V62.94C133.494 63.26 132.024 63.7 130.744 64.26L130.084 64.53V75ZM140.924 75V60H137.654V75H140.924ZM140.924 57.45V54H137.654V57.45H140.924ZM155.99 64.62V71.46C156.01 71.9 156.12 72.23 156.32 72.45C156.54 72.65 156.87 72.78 157.31 72.84L157.22 75.33C155.48 75.33 154.15 74.96 153.23 74.22C151.67 74.96 150.06 75.33 148.4 75.33C145.42 75.33 143.93 73.74 143.93 70.56C143.93 69.04 144.33 67.94 145.13 67.26C145.93 66.58 147.18 66.17 148.88 66.03L152.75 65.7V64.62C152.75 63.82 152.57 63.26 152.21 62.94C151.87 62.62 151.36 62.46 150.68 62.46C150.04 62.46 149.32 62.48 148.52 62.52C147.72 62.56 146.84 62.62 145.88 62.7L144.92 62.76L144.8 60.45C147.04 59.93 149.05 59.67 150.83 59.67C152.67 59.67 153.99 60.06 154.79 60.84C155.59 61.62 155.99 62.88 155.99 64.62ZM152.75 68.01L149.27 68.34C147.89 68.46 147.2 69.21 147.2 70.59C147.2 71.97 147.81 72.66 149.03 72.66C150.07 72.66 151.13 72.5 152.21 72.18L152.75 72V68.01Z" fill="black"/>
<path d="M120.778 28.1395L121.829 25.7787L119.294 25.2858C114.921 24.4925 110.796 22.6786 107.255 19.9915C103.577 17.0913 99.1382 15.3188 94.4744 14.8885C92.0276 14.6152 89.5512 14.9582 87.2708 15.8864C84.9903 16.8146 82.9783 18.2985 81.4178 20.2029C79.4002 22.6621 78.0555 25.6029 77.5154 28.7377C78.8801 27.7217 80.3194 26.8099 81.8211 26.0101C85.1283 24.3713 88.8227 23.6744 92.4997 23.9955C96.045 24.2994 99.47 25.4294 102.5 27.295C99.2977 26.082 95.8779 25.5492 92.4583 25.7304C90.8144 25.808 89.1871 26.095 87.6158 26.5844C86.0876 27.0974 84.617 27.7681 83.2277 28.5856C80.4728 30.3786 77.9971 32.5678 75.8804 35.0825C73.7174 37.5831 71.7888 40.2772 70.1191 43.1309L73.6752 45.1378C75.2995 42.6501 77.0987 40.2811 79.0592 38.0487C80.7743 40.7731 83.1574 43.0138 85.9821 44.558C88.5977 46.0318 91.4823 46.9662 94.4652 47.306C111.257 49.1638 120.327 28.9396 120.778 28.1395Z" fill="#0FA958"/>
</svg>
