<svg width="52" height="52" viewBox="0 0 52 52" fill="none" xmlns="http://www.w3.org/2000/svg">
<rect width="52" height="52" rx="3" fill="#EEEEEE"/>
<path fill-rule="evenodd" clip-rule="evenodd" d="M22.572 20.9585H27.524V23.4252C28.2373 22.0065 30.0666 20.7318 32.8146 20.7318C38.0826 20.7318 39.3333 23.5558 39.3333 28.7372V38.3332H34V29.9172C34 26.9665 33.2866 25.3025 31.4706 25.3025C28.952 25.3025 27.9053 27.0958 27.9053 29.9158V38.3332H22.572V20.9585ZM13.4266 38.1065H18.76V20.7318H13.4266V38.1065ZM19.524 15.0665C19.5242 15.5135 19.4355 15.9562 19.2631 16.3686C19.0908 16.7811 18.8382 17.1552 18.52 17.4692C17.8752 18.11 17.0024 18.4687 16.0933 18.4665C15.1858 18.4659 14.315 18.1081 13.6693 17.4705C13.3522 17.1555 13.1005 16.7809 12.9284 16.3684C12.7564 15.9559 12.6674 15.5135 12.6666 15.0665C12.6666 14.1638 13.0266 13.2998 13.6706 12.6625C14.3158 12.024 15.1869 11.6661 16.0946 11.6665C17.004 11.6665 17.876 12.0252 18.52 12.6625C19.1626 13.2998 19.524 14.1638 19.524 15.0665Z" fill="#FF9A62"/>
</svg>
